<svg width="24" height="24" viewBox="0 0 24 24" fill="none" xmlns="http://www.w3.org/2000/svg">
<path d="M16.9991 13.0001L12.9991 22.0001C12.2034 22.0001 11.4403 21.684 10.8777 21.1214C10.3151 20.5588 9.99905 19.7958 9.99905 19.0001V15.0001H4.33905C4.04915 15.0034 3.76199 14.9436 3.49748 14.8249C3.23297 14.7062 2.99744 14.5314 2.8072 14.3126C2.61695 14.0938 2.47655 13.8363 2.39571 13.5579C2.31488 13.2794 2.29555 12.9868 2.33905 12.7001L3.71905 3.70012C3.79138 3.22321 4.03362 2.78851 4.40115 2.47611C4.76868 2.16371 5.23673 1.99466 5.71905 2.00012H16.9991M16.9991 13.0001V2.00012M16.9991 13.0001H19.6691C20.235 13.0101 20.785 12.812 21.2145 12.4433C21.644 12.0746 21.9232 11.5611 21.9991 11.0001V4.00012C21.9232 3.43918 21.644 2.92562 21.2145 2.55694C20.785 2.18825 20.235 1.99011 19.6691 2.00012H16.9991" stroke="#C7D1DB" stroke-width="2" stroke-linecap="square" stroke-linejoin="round"/>
</svg>
