<svg width="24" height="24" viewBox="0 0 24 24" fill="none" xmlns="http://www.w3.org/2000/svg">
<g clip-path="url(#clip0_573_119806)">
<path d="M10.6794 13.31C11.6943 14.3257 12.8413 15.2002 14.0894 15.91L15.3594 14.64C15.6313 14.3711 15.9746 14.1858 16.3486 14.1061C16.7225 14.0263 17.1115 14.0554 17.4694 14.19C18.3767 14.5285 19.3194 14.7634 20.2794 14.89C20.76 14.9579 21.1995 15.1982 21.5159 15.5662C21.8324 15.9342 22.0042 16.4047 21.9994 16.89V19.89C22.0006 20.1685 21.9435 20.4441 21.832 20.6993C21.7204 20.9545 21.5567 21.1836 21.3515 21.3718C21.1463 21.5601 20.904 21.7035 20.6402 21.7927C20.3764 21.8819 20.0968 21.915 19.8194 21.89C16.7423 21.5556 13.7864 20.5041 11.1894 18.82C9.98471 18.055 8.86797 17.1596 7.85945 16.15M5.18945 12.81C3.5053 10.213 2.4538 7.25714 2.11944 4.17997C2.09446 3.90344 2.12732 3.62474 2.21595 3.3616C2.30457 3.09846 2.44702 2.85666 2.63421 2.6516C2.82141 2.44653 3.04925 2.28268 3.30324 2.1705C3.55722 2.05831 3.83179 2.00024 4.10945 1.99997H7.10945C7.59475 1.9952 8.06524 2.16705 8.43321 2.48351C8.80118 2.79996 9.04152 3.23942 9.10944 3.71997C9.23607 4.68004 9.47089 5.6227 9.80945 6.52997C9.94399 6.8879 9.97311 7.27689 9.89335 7.65086C9.8136 8.02482 9.62831 8.36809 9.35944 8.63998L8.08945 9.90997" stroke="#C7D1DB" stroke-width="2" stroke-linecap="square" stroke-linejoin="round"/>
<path d="M23 1L1 23" stroke="#C7D1DB" stroke-width="2" stroke-linecap="square" stroke-linejoin="round"/>
</g>
<defs>
<clipPath id="clip0_573_119806">
<rect width="24" height="24" fill="white"/>
</clipPath>
</defs>
</svg>
