<svg width="24" height="24" viewBox="0 0 24 24" fill="none" xmlns="http://www.w3.org/2000/svg">
<g clip-path="url(#clip0_573_120349)">
<path d="M1 1L23 23" stroke="#C7D1DB" stroke-width="2" stroke-linecap="square" stroke-linejoin="round"/>
<path d="M16.7207 11.0601C17.5398 11.4598 18.3057 11.9604 19.0007 12.5501" stroke="#C7D1DB" stroke-width="2" stroke-linecap="square" stroke-linejoin="round"/>
<path d="M5 12.5499C6.48208 11.3107 8.26587 10.4861 10.17 10.1599" stroke="#C7D1DB" stroke-width="2" stroke-linecap="square" stroke-linejoin="round"/>
<path d="M10.7109 5.04998C12.8534 4.87735 15.0086 5.13815 17.048 5.8168C19.0874 6.49546 20.9691 7.57806 22.5809 8.99998" stroke="#C7D1DB" stroke-width="2" stroke-linecap="square" stroke-linejoin="round"/>
<path d="M1.41992 9.00012C2.80709 7.77397 4.39762 6.79934 6.11992 6.12012" stroke="#C7D1DB" stroke-width="2" stroke-linecap="square" stroke-linejoin="round"/>
<path d="M8.5293 16.11C9.5445 15.3887 10.759 15.0012 12.0043 15.0012C13.2496 15.0012 14.4641 15.3887 15.4793 16.11" stroke="#C7D1DB" stroke-width="2" stroke-linecap="square" stroke-linejoin="round"/>
<path d="M12 20H12.01" stroke="#C7D1DB" stroke-width="2" stroke-linecap="square" stroke-linejoin="round"/>
</g>
<defs>
<clipPath id="clip0_573_120349">
<rect width="24" height="24" fill="white"/>
</clipPath>
</defs>
</svg>
