<svg width="24" height="24" viewBox="0 0 24 24" fill="none" xmlns="http://www.w3.org/2000/svg">
<path d="M1.19922 4.15234H3.75793L8.46531 13.2365H16.2686C16.6499 13.2365 17.0067 13.035 17.1953 12.7087L21.2466 5.74358" stroke="#3399FF" stroke-width="2" stroke-miterlimit="10"/>
<path d="M12.5469 2.3999V10.2513" stroke="#3399FF" stroke-width="2" stroke-miterlimit="10"/>
<path d="M8.55273 6.32373H16.5446" stroke="#3399FF" stroke-width="2" stroke-miterlimit="10"/>
<path d="M8.46682 13.2366L6.90453 15.4885C6.30996 16.3465 6.93323 17.5107 7.99116 17.5107H19.5997" stroke="#3399FF" stroke-width="2" stroke-miterlimit="10"/>
<path d="M7.34315 22.3973C7.79155 22.3973 8.15505 22.0402 8.15505 21.5996C8.15505 21.1591 7.79155 20.802 7.34315 20.802C6.89475 20.802 6.53125 21.1591 6.53125 21.5996C6.53125 22.0402 6.89475 22.3973 7.34315 22.3973Z" fill="#3399FF" stroke="#3399FF" stroke-width="2" stroke-miterlimit="10"/>
<path d="M17.9545 22.3731C18.4029 22.3731 18.7664 22.016 18.7664 21.5755C18.7664 21.1349 18.4029 20.7778 17.9545 20.7778C17.5061 20.7778 17.1426 21.1349 17.1426 21.5755C17.1426 22.016 17.5061 22.3731 17.9545 22.3731Z" fill="#3399FF" stroke="#3399FF" stroke-width="2" stroke-miterlimit="10"/>
</svg>