<svg width="24" height="24" viewBox="0 0 24 24" fill="none" xmlns="http://www.w3.org/2000/svg">
    <g clip-path="url(#gv48iwyria)" stroke="#737C85" stroke-width="1.5" stroke-linecap="round" stroke-linejoin="round">
        <path d="M9 5.25v13.5M2.25 15.674a.75.75 0 0 1 .6-.734 3 3 0 0 0 0-5.88.75.75 0 0 1-.6-.734V6A.75.75 0 0 1 3 5.25h18a.75.75 0 0 1 .75.75v2.326a.75.75 0 0 1-.6.734 3 3 0 0 0 0 5.88.75.75 0 0 1 .6.734V18a.75.75 0 0 1-.75.75H3a.75.75 0 0 1-.75-.75v-2.326z"/>
    </g>
    <defs>
        <clipPath id="gv48iwyria">
            <path fill="#fff" d="M0 0h24v24H0z"/>
        </clipPath>
    </defs>
</svg>
