<svg width="24" height="22" viewBox="0 0 24 22" fill="none" xmlns="http://www.w3.org/2000/svg">
<path d="M12 20.1666C17.5228 20.1666 22 16.0625 22 10.9999C22 5.93731 17.5228 1.83325 12 1.83325C6.47715 1.83325 2 5.93731 2 10.9999C2 16.0625 6.47715 20.1666 12 20.1666Z" stroke="#C7D1DB" stroke-width="2" stroke-linecap="square" stroke-linejoin="round"/>
<path d="M9.08984 8.25003C9.32495 7.6374 9.789 7.1208 10.3998 6.79174C11.0106 6.46268 11.7287 6.34239 12.427 6.45219C13.1253 6.56198 13.7587 6.89476 14.2149 7.3916C14.6712 7.88844 14.9209 8.51726 14.9198 9.1667C14.9198 11 11.9198 11.9167 11.9198 11.9167" stroke="#C7D1DB" stroke-width="2" stroke-linecap="square" stroke-linejoin="round"/>
<path d="M12 15.5833H12.01" stroke="#C7D1DB" stroke-width="2" stroke-linecap="square" stroke-linejoin="round"/>
</svg>
