<svg width="24" height="24" viewBox="0 0 24 24" fill="none" xmlns="http://www.w3.org/2000/svg">
<path d="M1.19922 4.15234H3.75793L8.46531 13.2365H16.2686C16.6499 13.2365 17.0067 13.035 17.1953 12.7087L21.2466 5.74358" stroke="#C7D1DB" stroke-width="2" stroke-miterlimit="10"/>
<path d="M12.5469 2.40002V10.2514" stroke="#C7D1DB" stroke-width="2" stroke-miterlimit="10"/>
<path d="M8.55273 6.32373H16.5446" stroke="#C7D1DB" stroke-width="2" stroke-miterlimit="10"/>
<path d="M8.46682 13.2365L6.90453 15.4883C6.30996 16.3464 6.93323 17.5106 7.99116 17.5106H19.5997" stroke="#C7D1DB" stroke-width="2" stroke-miterlimit="10"/>
<path d="M7.34315 22.3971C7.79155 22.3971 8.15505 22.04 8.15505 21.5995C8.15505 21.159 7.79155 20.8019 7.34315 20.8019C6.89475 20.8019 6.53125 21.159 6.53125 21.5995C6.53125 22.04 6.89475 22.3971 7.34315 22.3971Z" fill="#C7D1DB" stroke="#C7D1DB" stroke-width="2" stroke-miterlimit="10"/>
<path d="M17.9545 22.373C18.4029 22.373 18.7664 22.0159 18.7664 21.5753C18.7664 21.1348 18.4029 20.7777 17.9545 20.7777C17.5061 20.7777 17.1426 21.1348 17.1426 21.5753C17.1426 22.0159 17.5061 22.373 17.9545 22.373Z" fill="#C7D1DB" stroke="#C7D1DB" stroke-width="2" stroke-miterlimit="10"/>
</svg>
