<svg width="24" height="24" viewBox="0 0 24 24" fill="none" xmlns="http://www.w3.org/2000/svg">
<path d="M12 22C17.5228 22 22 17.5228 22 12C22 6.47715 17.5228 2 12 2C6.47715 2 2 6.47715 2 12C2 17.5228 6.47715 22 12 22Z" stroke="#C7D1DB" stroke-width="2" stroke-linecap="square" stroke-linejoin="round"/>
<path d="M12 16C14.2091 16 16 14.2091 16 12C16 9.79086 14.2091 8 12 8C9.79086 8 8 9.79086 8 12C8 14.2091 9.79086 16 12 16Z" stroke="#C7D1DB" stroke-width="2" stroke-linecap="square" stroke-linejoin="round"/>
<path d="M4.92969 4.93005L9.16969 9.17005" stroke="#C7D1DB" stroke-width="2" stroke-linecap="square" stroke-linejoin="round"/>
<path d="M14.8301 14.83L19.0701 19.07" stroke="#C7D1DB" stroke-width="2" stroke-linecap="square" stroke-linejoin="round"/>
<path d="M14.8301 9.17005L19.0701 4.93005" stroke="#C7D1DB" stroke-width="2" stroke-linecap="square" stroke-linejoin="round"/>
<path d="M14.8301 9.17001L18.3601 5.64001" stroke="#C7D1DB" stroke-width="2" stroke-linecap="square" stroke-linejoin="round"/>
<path d="M4.92969 19.07L9.16969 14.83" stroke="#C7D1DB" stroke-width="2" stroke-linecap="square" stroke-linejoin="round"/>
</svg>
