<svg width="24" height="24" viewBox="0 0 24 24" fill="none" xmlns="http://www.w3.org/2000/svg">
<g clip-path="url(#clip0_573_120603)">
<path d="M9 5.25V18.75" stroke="#C7D1DB" stroke-width="2" stroke-linecap="round" stroke-linejoin="round"/>
<path d="M2.25 15.6741C2.25018 15.5013 2.30998 15.3339 2.4193 15.2002C2.52862 15.0665 2.68075 14.9745 2.85 14.94C3.52817 14.8023 4.13788 14.4344 4.57583 13.8986C5.01377 13.3627 5.25301 12.692 5.25301 12C5.25301 11.308 5.01377 10.6373 4.57583 10.1014C4.13788 9.56564 3.52817 9.19771 2.85 9.06C2.68075 9.02545 2.52862 8.93354 2.4193 8.7998C2.30998 8.66605 2.25018 8.49867 2.25 8.32594V6C2.25 5.80109 2.32902 5.61032 2.46967 5.46967C2.61032 5.32902 2.80109 5.25 3 5.25H21C21.1989 5.25 21.3897 5.32902 21.5303 5.46967C21.671 5.61032 21.75 5.80109 21.75 6V8.32594C21.7498 8.49867 21.69 8.66605 21.5807 8.7998C21.4714 8.93354 21.3192 9.02545 21.15 9.06C20.4718 9.19771 19.8621 9.56564 19.4242 10.1014C18.9862 10.6373 18.747 11.308 18.747 12C18.747 12.692 18.9862 13.3627 19.4242 13.8986C19.8621 14.4344 20.4718 14.8023 21.15 14.94C21.3192 14.9745 21.4714 15.0665 21.5807 15.2002C21.69 15.3339 21.7498 15.5013 21.75 15.6741V18C21.75 18.1989 21.671 18.3897 21.5303 18.5303C21.3897 18.671 21.1989 18.75 21 18.75H3C2.80109 18.75 2.61032 18.671 2.46967 18.5303C2.32902 18.3897 2.25 18.1989 2.25 18V15.6741Z" stroke="#C7D1DB" stroke-width="2" stroke-linecap="round" stroke-linejoin="round"/>
</g>
<defs>
<clipPath id="clip0_573_120603">
<rect width="24" height="24" fill="white"/>
</clipPath>
</defs>
</svg>
