<svg width="24" height="24" viewBox="0 0 24 24" fill="none" xmlns="http://www.w3.org/2000/svg">
<g clip-path="url(#clip0_573_120607)">
<path d="M11.9982 1.76477C18.3455 4.37874 21.2736 8.83216 21.2736 13.6444C21.2736 18.4566 17.1209 22.3576 11.9982 22.3576C6.87541 22.3576 2.72266 18.4566 2.72266 13.6444C2.72266 8.83216 5.9418 5.36396 5.9418 7.04396C5.9418 11.076 15.6841 11.2411 11.9982 1.76477Z" stroke="#C7D1DB" stroke-width="2" stroke-miterlimit="10"/>
<path d="M14.348 19.9299C14.3805 19.8112 14.4008 19.6889 14.4008 19.562C14.4008 18.6993 13.5949 18 12.6008 18C11.6067 18 10.8008 18.6993 10.8008 19.562C10.8008 19.7924 10.8604 20.0098 10.9633 20.2072C11.3832 20.3318 11.8328 20.4 12.3015 20.4C13.0464 20.4 13.7453 20.2284 14.3493 19.9299H14.348Z" stroke="#C7D1DB" stroke-width="2" stroke-miterlimit="10" stroke-linejoin="round"/>
</g>
<defs>
<clipPath id="clip0_573_120607">
<rect width="24" height="24" fill="white"/>
</clipPath>
</defs>
</svg>
