<svg width="24" height="24" viewBox="0 0 24 24" fill="none" xmlns="http://www.w3.org/2000/svg">
<path d="M18 14.6667V9.33335C17.9998 9.09953 17.938 8.86989 17.821 8.66746C17.704 8.46503 17.5358 8.29692 17.3333 8.18002L12.6667 5.51335C12.464 5.39633 12.234 5.33472 12 5.33472C11.766 5.33472 11.536 5.39633 11.3333 5.51335L6.66667 8.18002C6.46418 8.29692 6.29599 8.46503 6.17897 8.66746C6.06196 8.86989 6.00024 9.09953 6 9.33335V14.6667C6.00024 14.9005 6.06196 15.1301 6.17897 15.3326C6.29599 15.535 6.46418 15.7031 6.66667 15.82L11.3333 18.4867C11.536 18.6037 11.766 18.6653 12 18.6653C12.234 18.6653 12.464 18.6037 12.6667 18.4867L17.3333 15.82C17.5358 15.7031 17.704 15.535 17.821 15.3326C17.938 15.1301 17.9998 14.9005 18 14.6667Z" stroke="#C7D1DB" stroke-width="2" stroke-linecap="round" stroke-linejoin="round"/>
<path d="M6.17969 8.63989L11.9997 12.0066L17.8197 8.63989" stroke="#C7D1DB" stroke-width="2" stroke-linecap="round" stroke-linejoin="round"/>
<path d="M12 18.72V12" stroke="#C7D1DB" stroke-width="2" stroke-linecap="round" stroke-linejoin="round"/>
<path d="M7 2H4C2.89543 2 2 2.89543 2 4V7" stroke="#C7D1DB" stroke-width="2"/>
<path d="M17 22L20 22C21.1046 22 22 21.1046 22 20L22 17" stroke="#C7D1DB" stroke-width="2"/>
<path d="M22 7L22 4C22 2.89543 21.1046 2 20 2L17 2" stroke="#C7D1DB" stroke-width="2"/>
<path d="M2 17L2 20C2 21.1046 2.89543 22 4 22L7 22" stroke="#C7D1DB" stroke-width="2"/>
</svg>
