<svg width="24" height="24" viewBox="0 0 24 24" fill="none" xmlns="http://www.w3.org/2000/svg">
<path d="M14.6994 6.29998C14.5161 6.48691 14.4135 6.73823 14.4135 6.99998C14.4135 7.26173 14.5161 7.51305 14.6994 7.69998L16.2994 9.29998C16.4863 9.48321 16.7376 9.58584 16.9994 9.58584C17.2611 9.58584 17.5124 9.48321 17.6994 9.29998L21.4694 5.52998C21.9722 6.64117 22.1245 7.87921 21.9058 9.07913C21.6872 10.279 21.1081 11.3838 20.2456 12.2463C19.3832 13.1087 18.2784 13.6878 17.0785 13.9064C15.8786 14.1251 14.6406 13.9728 13.5294 13.47L6.61937 20.38C6.22154 20.7778 5.68198 21.0013 5.11937 21.0013C4.55676 21.0013 4.01719 20.7778 3.61937 20.38C3.22154 19.9822 2.99805 19.4426 2.99805 18.88C2.99805 18.3174 3.22154 17.7778 3.61937 17.38L10.5294 10.47C10.0265 9.35879 9.87428 8.12075 10.0929 6.92083C10.3115 5.72092 10.8907 4.61614 11.7531 3.7537C12.6155 2.89127 13.7203 2.31215 14.9202 2.09352C16.1201 1.8749 17.3582 2.02714 18.4694 2.52998L14.7094 6.28998L14.6994 6.29998Z" stroke="#C7D1DB" stroke-width="2" stroke-linecap="square" stroke-linejoin="round"/>
</svg>
