<svg width="235" height="54" viewBox="0 0 235 54" fill="none" xmlns="http://www.w3.org/2000/svg">
<path d="M27.9707 45C37.9118 45 45.9707 36.9411 45.9707 27C45.9707 17.0589 37.9118 9 27.9707 9C18.0296 9 9.9707 17.0589 9.9707 27C9.9707 36.9411 18.0296 45 27.9707 45Z" fill="#3399FF"/>
<path d="M28.1567 11.9763L16.1289 37.4833L27.9704 33.9627L39.8118 37.4833L28.1567 11.9763ZM27.9704 28.9564C26.8916 28.9564 26.014 28.0836 26.014 27C26.014 25.9164 26.8867 25.0436 27.9704 25.0436C29.054 25.0436 29.9268 25.9164 29.9268 27C29.9268 28.0836 29.054 28.9564 27.9704 28.9564Z" fill="white"/>
<path d="M56.7977 34V17.2H60.0137L69.9257 29.296H68.3657V17.2H72.2057V34H69.0137L59.0777 21.904H60.6377V34H56.7977ZM83.5245 34.192C82.0525 34.192 80.7565 33.904 79.6365 33.328C78.5325 32.752 77.6765 31.968 77.0685 30.976C76.4605 29.968 76.1565 28.824 76.1565 27.544C76.1565 26.248 76.4525 25.104 77.0445 24.112C77.6525 23.104 78.4765 22.32 79.5165 21.76C80.5565 21.184 81.7325 20.896 83.0445 20.896C84.3085 20.896 85.4445 21.168 86.4525 21.712C87.4765 22.24 88.2845 23.008 88.8765 24.016C89.4685 25.008 89.7645 26.2 89.7645 27.592C89.7645 27.736 89.7565 27.904 89.7405 28.096C89.7245 28.272 89.7085 28.44 89.6925 28.6H79.2045V26.416H87.7245L86.2845 27.064C86.2845 26.392 86.1485 25.808 85.8765 25.312C85.6045 24.816 85.2285 24.432 84.7485 24.16C84.2685 23.872 83.7085 23.728 83.0685 23.728C82.4285 23.728 81.8605 23.872 81.3645 24.16C80.8845 24.432 80.5085 24.824 80.2365 25.336C79.9645 25.832 79.8285 26.424 79.8285 27.112V27.688C79.8285 28.392 79.9805 29.016 80.2845 29.56C80.6045 30.088 81.0445 30.496 81.6045 30.784C82.1805 31.056 82.8525 31.192 83.6205 31.192C84.3085 31.192 84.9085 31.088 85.4205 30.88C85.9485 30.672 86.4285 30.36 86.8605 29.944L88.8525 32.104C88.2605 32.776 87.5165 33.296 86.6205 33.664C85.7245 34.016 84.6925 34.192 83.5245 34.192ZM98.9051 34.192C97.8331 34.192 96.8731 33.984 96.0251 33.568C95.1931 33.152 94.5451 32.52 94.0811 31.672C93.6171 30.808 93.3851 29.712 93.3851 28.384V21.088H97.1291V27.832C97.1291 28.904 97.3531 29.696 97.8011 30.208C98.2651 30.704 98.9131 30.952 99.7451 30.952C100.321 30.952 100.833 30.832 101.281 30.592C101.729 30.336 102.081 29.952 102.337 29.44C102.593 28.912 102.721 28.256 102.721 27.472V21.088H106.465V34H102.913V30.448L103.561 31.48C103.129 32.376 102.489 33.056 101.641 33.52C100.809 33.968 99.8971 34.192 98.9051 34.192ZM111.134 34V21.088H114.71V24.736L114.206 23.68C114.59 22.768 115.206 22.08 116.054 21.616C116.902 21.136 117.934 20.896 119.15 20.896V24.352C118.99 24.336 118.846 24.328 118.718 24.328C118.59 24.312 118.454 24.304 118.31 24.304C117.286 24.304 116.454 24.6 115.814 25.192C115.19 25.768 114.878 26.672 114.878 27.904V34H111.134ZM128.626 34.192C127.25 34.192 126.026 33.904 124.954 33.328C123.898 32.752 123.058 31.968 122.434 30.976C121.826 29.968 121.522 28.824 121.522 27.544C121.522 26.248 121.826 25.104 122.434 24.112C123.058 23.104 123.898 22.32 124.954 21.76C126.026 21.184 127.25 20.896 128.626 20.896C129.986 20.896 131.202 21.184 132.274 21.76C133.346 22.32 134.186 23.096 134.794 24.088C135.402 25.08 135.706 26.232 135.706 27.544C135.706 28.824 135.402 29.968 134.794 30.976C134.186 31.968 133.346 32.752 132.274 33.328C131.202 33.904 129.986 34.192 128.626 34.192ZM128.626 31.12C129.25 31.12 129.81 30.976 130.306 30.688C130.802 30.4 131.194 29.992 131.482 29.464C131.77 28.92 131.914 28.28 131.914 27.544C131.914 26.792 131.77 26.152 131.482 25.624C131.194 25.096 130.802 24.688 130.306 24.4C129.81 24.112 129.25 23.968 128.626 23.968C128.002 23.968 127.442 24.112 126.946 24.4C126.45 24.688 126.05 25.096 125.746 25.624C125.458 26.152 125.314 26.792 125.314 27.544C125.314 28.28 125.458 28.92 125.746 29.464C126.05 29.992 126.45 30.4 126.946 30.688C127.442 30.976 128.002 31.12 128.626 31.12ZM139.409 34V21.088H143.153V34H139.409ZM141.281 19.288C140.593 19.288 140.033 19.088 139.601 18.688C139.169 18.288 138.953 17.792 138.953 17.2C138.953 16.608 139.169 16.112 139.601 15.712C140.033 15.312 140.593 15.112 141.281 15.112C141.969 15.112 142.529 15.304 142.961 15.688C143.393 16.056 143.609 16.536 143.609 17.128C143.609 17.752 143.393 18.272 142.961 18.688C142.545 19.088 141.985 19.288 141.281 19.288ZM153.371 34.192C152.155 34.192 151.059 33.92 150.083 33.376C149.107 32.816 148.331 32.04 147.755 31.048C147.195 30.056 146.915 28.888 146.915 27.544C146.915 26.184 147.195 25.008 147.755 24.016C148.331 23.024 149.107 22.256 150.083 21.712C151.059 21.168 152.155 20.896 153.371 20.896C154.459 20.896 155.411 21.136 156.227 21.616C157.043 22.096 157.675 22.824 158.123 23.8C158.571 24.776 158.795 26.024 158.795 27.544C158.795 29.048 158.579 30.296 158.147 31.288C157.715 32.264 157.091 32.992 156.275 33.472C155.475 33.952 154.507 34.192 153.371 34.192ZM154.019 31.12C154.627 31.12 155.179 30.976 155.675 30.688C156.171 30.4 156.563 29.992 156.851 29.464C157.155 28.92 157.307 28.28 157.307 27.544C157.307 26.792 157.155 26.152 156.851 25.624C156.563 25.096 156.171 24.688 155.675 24.4C155.179 24.112 154.627 23.968 154.019 23.968C153.395 23.968 152.835 24.112 152.339 24.4C151.843 24.688 151.443 25.096 151.139 25.624C150.851 26.152 150.707 26.792 150.707 27.544C150.707 28.28 150.851 28.92 151.139 29.464C151.443 29.992 151.843 30.4 152.339 30.688C152.835 30.976 153.395 31.12 154.019 31.12ZM157.403 34V31.36L157.475 27.52L157.235 23.704V16.192H160.979V34H157.403ZM163.965 34L171.645 17.2H173.397L181.077 34H179.205L172.149 18.232H172.869L165.813 34H163.965ZM166.989 29.512L167.517 28.072H177.285L177.813 29.512H166.989ZM187.963 34.12C186.923 34.12 185.939 33.976 185.011 33.688C184.083 33.384 183.355 33.008 182.827 32.56L183.595 31.216C184.107 31.6 184.763 31.936 185.563 32.224C186.363 32.496 187.203 32.632 188.083 32.632C189.283 32.632 190.147 32.448 190.675 32.08C191.203 31.696 191.467 31.192 191.467 30.568C191.467 30.104 191.315 29.744 191.011 29.488C190.723 29.216 190.339 29.016 189.859 28.888C189.379 28.744 188.843 28.624 188.251 28.528C187.659 28.432 187.067 28.32 186.475 28.192C185.899 28.064 185.371 27.88 184.891 27.64C184.411 27.384 184.019 27.04 183.715 26.608C183.427 26.176 183.283 25.6 183.283 24.88C183.283 24.192 183.475 23.576 183.859 23.032C184.243 22.488 184.803 22.064 185.539 21.76C186.291 21.44 187.203 21.28 188.275 21.28C189.091 21.28 189.907 21.392 190.723 21.616C191.539 21.824 192.211 22.104 192.739 22.456L191.995 23.824C191.435 23.44 190.835 23.168 190.195 23.008C189.555 22.832 188.915 22.744 188.275 22.744C187.139 22.744 186.299 22.944 185.755 23.344C185.227 23.728 184.963 24.224 184.963 24.832C184.963 25.312 185.107 25.688 185.395 25.96C185.699 26.232 186.091 26.448 186.571 26.608C187.067 26.752 187.603 26.872 188.179 26.968C188.771 27.064 189.355 27.184 189.931 27.328C190.523 27.456 191.059 27.64 191.539 27.88C192.035 28.104 192.427 28.432 192.715 28.864C193.019 29.28 193.171 29.832 193.171 30.52C193.171 31.256 192.963 31.896 192.547 32.44C192.147 32.968 191.555 33.384 190.771 33.688C190.003 33.976 189.067 34.12 187.963 34.12ZM200.881 34.12C199.841 34.12 198.857 33.976 197.929 33.688C197.001 33.384 196.273 33.008 195.745 32.56L196.513 31.216C197.025 31.6 197.681 31.936 198.481 32.224C199.281 32.496 200.121 32.632 201.001 32.632C202.201 32.632 203.065 32.448 203.593 32.08C204.121 31.696 204.385 31.192 204.385 30.568C204.385 30.104 204.233 29.744 203.929 29.488C203.641 29.216 203.257 29.016 202.777 28.888C202.297 28.744 201.761 28.624 201.169 28.528C200.577 28.432 199.985 28.32 199.393 28.192C198.817 28.064 198.289 27.88 197.809 27.64C197.329 27.384 196.937 27.04 196.633 26.608C196.345 26.176 196.201 25.6 196.201 24.88C196.201 24.192 196.393 23.576 196.777 23.032C197.161 22.488 197.721 22.064 198.457 21.76C199.209 21.44 200.121 21.28 201.193 21.28C202.009 21.28 202.825 21.392 203.641 21.616C204.457 21.824 205.129 22.104 205.657 22.456L204.913 23.824C204.353 23.44 203.753 23.168 203.113 23.008C202.473 22.832 201.833 22.744 201.193 22.744C200.057 22.744 199.217 22.944 198.673 23.344C198.145 23.728 197.881 24.224 197.881 24.832C197.881 25.312 198.025 25.688 198.313 25.96C198.617 26.232 199.009 26.448 199.489 26.608C199.985 26.752 200.521 26.872 201.097 26.968C201.689 27.064 202.273 27.184 202.849 27.328C203.441 27.456 203.977 27.64 204.457 27.88C204.953 28.104 205.345 28.432 205.633 28.864C205.937 29.28 206.089 29.832 206.089 30.52C206.089 31.256 205.881 31.896 205.465 32.44C205.065 32.968 204.473 33.384 203.689 33.688C202.921 33.976 201.985 34.12 200.881 34.12ZM215.768 34.12C214.456 34.12 213.304 33.848 212.312 33.304C211.32 32.744 210.544 31.984 209.984 31.024C209.424 30.048 209.144 28.936 209.144 27.688C209.144 26.44 209.408 25.336 209.936 24.376C210.48 23.416 211.216 22.664 212.144 22.12C213.088 21.56 214.144 21.28 215.312 21.28C216.496 21.28 217.544 21.552 218.456 22.096C219.384 22.624 220.112 23.376 220.64 24.352C221.168 25.312 221.432 26.424 221.432 27.688C221.432 27.768 221.424 27.856 221.408 27.952C221.408 28.032 221.408 28.12 221.408 28.216H210.44V26.944H220.496L219.824 27.448C219.824 26.536 219.624 25.728 219.224 25.024C218.84 24.304 218.312 23.744 217.64 23.344C216.968 22.944 216.192 22.744 215.312 22.744C214.448 22.744 213.672 22.944 212.984 23.344C212.296 23.744 211.76 24.304 211.376 25.024C210.992 25.744 210.8 26.568 210.8 27.496V27.76C210.8 28.72 211.008 29.568 211.424 30.304C211.856 31.024 212.448 31.592 213.2 32.008C213.968 32.408 214.84 32.608 215.816 32.608C216.584 32.608 217.296 32.472 217.952 32.2C218.624 31.928 219.2 31.512 219.68 30.952L220.64 32.056C220.08 32.728 219.376 33.24 218.528 33.592C217.696 33.944 216.776 34.12 215.768 34.12ZM230.084 34.12C228.9 34.12 227.988 33.8 227.348 33.16C226.708 32.52 226.388 31.616 226.388 30.448V18.616H228.092V30.352C228.092 31.088 228.276 31.656 228.644 32.056C229.028 32.456 229.572 32.656 230.276 32.656C231.028 32.656 231.652 32.44 232.148 32.008L232.748 33.232C232.412 33.536 232.004 33.76 231.524 33.904C231.06 34.048 230.58 34.12 230.084 34.12ZM224.132 22.816V21.4H231.932V22.816H224.132Z" fill="#248FEF"/>
</svg>
